<mxfile host="app.diagrams.net" modified="2023-08-23T07:20:46.153Z" agent="Mozilla/5.0 (Windows NT 10.0; Win64; x64) AppleWebKit/537.36 (KHTML, like Gecko) Chrome/115.0.0.0 Safari/537.36 Edg/115.0.1901.203" version="21.6.5" etag="-dWPUzFVNSY6TKl-rNje" type="github">
  <diagram name="第 1 页" id="_MMPctmQaRWMWhrI2UEJ">
    <mxGraphModel>
      <root>
        <mxCell id="0" />
        <mxCell id="1" parent="0" />
      </root>
    </mxGraphModel>
  </diagram>
</mxfile>
